<svg version="1.1"
	 xmlns="http://www.w3.org/2000/svg" xmlns:xlink="http://www.w3.org/1999/xlink" xmlns:a="http://ns.adobe.com/AdobeSVGViewerExtensions/3.0/"
	 x="0px" y="0px" viewBox="0 0 29.8 29.8" enable-background="new 0 0 29.8 29.8"
	 xml:space="preserve">
<defs>
</defs>
<g id="XMLID_15_">
	<circle id="XMLID_19_" fill="#662D91" cx="14.9" cy="14.9" r="14.9"/>
	<g id="XMLID_16_">
		<path id="XMLID_17_" fill="#F2F2F2" d="M15.3,8.9c0.8,0,1.5,0.1,2.1,0.3c0.6,0.2,1.1,0.5,1.5,0.8c0.4,0.3,0.7,0.7,1,1.2
			c0.2,0.5,0.3,1,0.3,1.5c0,1.4-0.8,2.8-2.4,4.1l-2.7,2.1H20c0.1,0.1,0.2,0.3,0.2,0.6c0.1,0.2,0.1,0.5,0.1,0.8c0,0.5-0.1,0.8-0.3,1
			c-0.2,0.2-0.5,0.3-0.9,0.3h-7c-0.3-0.2-0.5-0.5-0.7-0.8c-0.2-0.3-0.3-0.7-0.3-1.1c0-0.5,0.1-0.9,0.3-1.2c0.2-0.3,0.4-0.6,0.6-0.8
			l2.8-2.4c0.4-0.3,0.6-0.6,0.9-0.8c0.2-0.2,0.4-0.5,0.6-0.6s0.2-0.4,0.3-0.5c0.1-0.2,0.1-0.3,0.1-0.5c0-0.4-0.2-0.7-0.5-0.9
			c-0.3-0.2-0.7-0.3-1.2-0.3c-0.5,0-1,0.1-1.5,0.3c-0.4,0.2-0.8,0.3-1.1,0.5c-0.2-0.2-0.4-0.4-0.6-0.6c-0.1-0.2-0.2-0.5-0.2-0.9
			c0-0.7,0.3-1.2,1-1.6C13.3,9,14.2,8.9,15.3,8.9z"/>
	</g>
</g>
</svg>
