<svg version="1.1"
	 xmlns="http://www.w3.org/2000/svg" xmlns:xlink="http://www.w3.org/1999/xlink" xmlns:a="http://ns.adobe.com/AdobeSVGViewerExtensions/3.0/"
	 x="0px" y="0px" viewBox="0 0 1062.9 522.9" enable-background="new 0 0 1062.9 522.9"
	 xml:space="preserve">
<defs>
</defs>
<g id="XMLID_15_">
	<rect id="horizontal_x5F_frame_7_" y="77.9" fill="#E6E6E6" width="1062.9" height="444.9"/>
	<rect id="horizontal_x5F_frame_6_" y="77.9" fill="#CCCCCC" width="242.2" height="59.7"/>
	<rect id="horizontal_x5F_frame_5_" x="404.8" y="77.9" fill="#CCCCCC" width="658.2" height="59.7"/>
	<g id="XMLID_220_">
		<rect id="horizontal_x5F_frame_4_" y="0.6" fill="#E6E6E6" width="1062.9" height="80"/>
		<path id="search_x5F_bar_1_" fill="#CCCCCC" d="M468,57H259.1c-4.5,0-8.2-3.7-8.2-8.2V35.1c0-4.5,3.7-8.2,8.2-8.2H468
			c4.5,0,8.2,3.7,8.2,8.2v13.7C476.1,53.3,472.5,57,468,57z"/>
		<g id="protonmail_x5F_logo_1_">
			<path id="XMLID_287_" fill="#B3B3B3" d="M68.8,35.6c-1.1-0.9-2.8-1.3-4.9-1.3h-4.6v16.9h2.9v-6H64c2,0,3.6-0.4,4.7-1.3
				c1.3-0.9,1.9-2.4,1.9-4.3C70.6,37.8,70,36.5,68.8,35.6z M67.6,39.6c0,1.2-0.3,2-0.9,2.5c-0.5,0.4-1.3,0.6-2.5,0.6h-1.9v-6.2h1.9
				C66.4,36.6,67.6,37.6,67.6,39.6z"/>
			<path id="XMLID_286_" fill="#B3B3B3" d="M78.3,37.8c-0.8,0-1.5,0.3-2.1,0.8c-0.4,0.3-0.7,0.7-0.9,1.1l-0.2-1.6h-2.5v13.1h2.8
				v-7.6c0.2-0.8,0.9-3,2.7-3c0.4,0,0.6,0,1,0.1l0.3,0.1l0.5-2.7L79.6,38C79.2,37.9,78.8,37.8,78.3,37.8z"/>
			<path id="XMLID_283_" fill="#B3B3B3" d="M85.9,37.5c-1.8,0-3.3,0.7-4.4,1.9c-1,1.2-1.5,2.9-1.5,4.9c0,2,0.5,3.7,1.5,4.9
				c1,1.2,2.5,1.9,4.4,1.9c1.8,0,3.3-0.7,4.3-1.9c1-1.2,1.5-2.9,1.5-4.9c0-2-0.5-3.7-1.5-4.9C89.3,38.2,87.8,37.5,85.9,37.5z
				 M85.9,48.8c-2,0-2.9-1.5-2.9-4.4c0-1.5,0.3-2.7,0.8-3.4c0.5-0.7,1.2-1,2.1-1c0.9,0,1.6,0.3,2.1,1c0.5,0.7,0.8,1.9,0.8,3.4
				C88.8,47.4,87.9,48.8,85.9,48.8z"/>
			<path id="XMLID_282_" fill="#B3B3B3" d="M100,48.3c-0.6,0.3-1,0.5-1.5,0.5c-0.7,0-1.2-0.3-1.2-1.5v-7.1h2.8l0.4-2.3h-3.2v-3.1
				L94.6,35v2.8h-2v2.3h2v7.2c0,2.5,1.3,3.9,3.7,3.9c1.1,0,2.2-0.3,3-0.9l0.2-0.2l-1.1-2L100,48.3z"/>
			<path id="XMLID_279_" fill="#B3B3B3" d="M107.5,37.5c-1.8,0-3.3,0.7-4.4,1.9c-1,1.2-1.5,2.9-1.5,4.9c0,2,0.5,3.7,1.5,4.9
				c1,1.2,2.5,1.9,4.4,1.9c1.8,0,3.3-0.7,4.3-1.9c1-1.2,1.5-2.9,1.5-4.9c0-2-0.5-3.7-1.5-4.9C110.9,38.2,109.4,37.5,107.5,37.5z
				 M107.5,48.8c-2,0-2.9-1.5-2.9-4.4c0-1.5,0.3-2.7,0.8-3.4c0.5-0.7,1.2-1,2.1-1c0.9,0,1.6,0.3,2.1,1c0.5,0.7,0.8,1.9,0.8,3.4
				C110.4,47.4,109.5,48.8,107.5,48.8z"/>
			<path id="XMLID_278_" fill="#B3B3B3" d="M122.3,37.8c-1.4,0-2.7,0.6-3.7,1.6l-0.1-1.3H116v13.1h2.8v-9.2c0.4-0.6,1.4-1.8,2.8-1.8
				c1.2,0,1.6,0.5,1.6,1.8v9.2h2.8v-9.4c0-1.3-0.3-2.2-0.9-2.9C124.5,38.2,123.6,37.8,122.3,37.8z"/>
			<path id="XMLID_277_" fill="#B3B3B3" d="M140.2,34.3L137,45.5l-3.4-11.3H130l-1.4,16.9h2.8l0.7-8.6c0.1-1.2,0.2-2.7,0.2-3.8
				l3.4,10.7h2.6l3.2-10.7c0,1.1,0.1,2.5,0.2,3.8l0.7,8.6h2.8l-1.4-16.9L140.2,34.3L140.2,34.3z"/>
			<path id="XMLID_274_" fill="#B3B3B3" d="M156.9,47.8v-5.9c0-2-0.8-4.4-4.9-4.4c-1.4,0-2.8,0.3-4.3,0.8l-0.3,0.1l0.8,2.2l0.3-0.1
				c1.1-0.4,2.3-0.6,3.2-0.6c1.7,0,2.4,0.6,2.4,2.1v0.7h-1.3c-1.9,0-3.5,0.4-4.5,1.1c-1.1,0.7-1.6,1.9-1.6,3.2
				c0,2.5,1.7,4.2,4.4,4.2c0.8,0,1.6-0.2,2.2-0.5c0.5-0.2,1-0.6,1.4-1c0.4,0.8,1.2,1.3,2.3,1.5l0.3,0l0.7-2l-0.3-0.1
				C157.1,48.9,156.9,48.7,156.9,47.8z M154.1,44.8v2.7c-0.7,1-1.5,1.5-2.5,1.5c-1.4,0-1.9-0.6-1.9-2c0-0.7,0.2-1.2,0.7-1.6
				c0.5-0.4,1.4-0.6,2.6-0.6H154.1z"/>
			<rect id="XMLID_273_" x="160.3" y="38.1" fill="#B3B3B3" width="2.8" height="13.1"/>
			<path id="XMLID_272_" fill="#B3B3B3" d="M161.7,32.3c-0.5,0-1,0.2-1.3,0.5c-0.3,0.3-0.5,0.8-0.5,1.3c0,1,0.8,1.8,1.8,1.8
				c0.5,0,1-0.2,1.3-0.5c0.3-0.3,0.5-0.8,0.5-1.3C163.5,33.1,162.7,32.3,161.7,32.3z"/>
			<path id="XMLID_271_" fill="#B3B3B3" d="M170.6,48.5l-0.3,0.1c-0.2,0.1-0.4,0.1-0.7,0.1c-0.2,0-0.5,0-0.5-0.7V32.5l-2.8,0.3v15.1
				c0,1.1,0.3,1.9,0.8,2.5c0.5,0.5,1.2,0.8,2.1,0.8c0.6,0,1.3-0.2,1.9-0.5l0.3-0.1L170.6,48.5z"/>
			<path id="XMLID_268_" fill="#B3B3B3" d="M45.5,30c0,0-6.2-0.2-7.5,6.7v4.7c0,0,0.1,0.5,1.5,1.5c1.4,1,5.1,3.9,6.1,3.9
				s4.6-2.9,6.1-3.9c1.4-1,1.5-1.5,1.5-1.5v-4.7C51.8,29.8,45.5,30,45.5,30z M49.8,39.3h-4.3h-4.3v-2.6c0.9-3.4,4.3-3.5,4.3-3.5
				s3.4,0,4.3,3.5V39.3z"/>
			<path id="XMLID_267_" fill="#B3B3B3" d="M45.5,48c0,0-1-0.1-1.7-0.6C43,46.8,38,43.2,38,43.2v7.1c0,0,0,0.8,1,0.8s6.6,0,6.6,0
				s5.7,0,6.6,0s1-0.8,1-0.8v-7.1c0,0-5,3.6-5.8,4.1C46.5,47.9,45.5,48,45.5,48z"/>
		</g>
		<g id="XMLID_221_">
			<g id="XMLID_224_">
				<rect id="top_x5F_border_1_" x="780.4" fill="#CCCCCC" width="101.4" height="10.6"/>
				<g id="XMLID_225_">
					<path id="hn_x5F_icon_x5F_3_1_" fill="#CCCCCC" d="M840.5,42.8h-16.7c-1.5,0-2.8-1.2-2.8-2.8V23.4c0-1.5,1.2-2.8,2.8-2.8h16.7
						c1.5,0,2.8,1.2,2.8,2.8v16.7C843.2,41.6,842,42.8,840.5,42.8z"/>
					<g id="XMLID_226_">
						<g id="XMLID_228_">
							<path id="XMLID_246_" fill="#8855B5" d="M794.9,61.5c-0.6-0.2-1.2-0.4-1.8-0.6c-0.5-0.2-1-0.5-1.4-0.8
								c-0.4-0.3-0.7-0.6-0.9-1.1s-0.3-0.9-0.3-1.5c0-1.1,0.5-2,1.4-2.7c1-0.7,2.3-1,4.1-1c0.6,0,1.2,0,1.8,0.1
								c0.5,0.1,1,0.2,1.4,0.4c0.4,0.2,0.7,0.4,0.9,0.6c0.2,0.3,0.3,0.6,0.3,0.9s-0.1,0.6-0.3,0.9c-0.2,0.2-0.4,0.5-0.6,0.6
								c-0.3-0.2-0.8-0.4-1.3-0.5c-0.5-0.1-1.1-0.2-1.8-0.2c-0.7,0-1.2,0.1-1.5,0.3s-0.5,0.4-0.5,0.6c0,0.2,0.1,0.4,0.3,0.5
								c0.2,0.1,0.5,0.2,0.9,0.4l1.2,0.3c1.4,0.4,2.5,0.9,3.2,1.5c0.7,0.6,1.1,1.5,1.1,2.5c0,1.1-0.5,2.1-1.5,2.8
								c-1,0.7-2.4,1.1-4.4,1.1c-0.7,0-1.3,0-1.9-0.2c-0.6-0.1-1.1-0.2-1.5-0.4c-0.4-0.2-0.8-0.4-1-0.7c-0.2-0.3-0.4-0.6-0.4-1
								c0-0.4,0.1-0.7,0.4-1c0.3-0.3,0.5-0.5,0.8-0.6c0.4,0.3,0.9,0.5,1.5,0.8c0.6,0.2,1.3,0.3,2,0.3c0.7,0,1.2-0.1,1.5-0.3
								c0.3-0.2,0.4-0.4,0.4-0.7c0-0.3-0.1-0.5-0.4-0.6c-0.2-0.1-0.6-0.3-1-0.4L794.9,61.5z"/>
							<path id="XMLID_243_" fill="#8855B5" d="M808.7,66.6c-0.9,0-1.7-0.1-2.4-0.3s-1.4-0.6-1.9-1c-0.6-0.4-1-1-1.3-1.7
								c-0.3-0.7-0.5-1.4-0.5-2.3c0-0.9,0.2-1.6,0.5-2.3c0.3-0.6,0.7-1.2,1.3-1.6c0.5-0.4,1.1-0.7,1.8-0.9c0.7-0.2,1.3-0.3,2-0.3
								c0.8,0,1.5,0.1,2.1,0.3c0.6,0.2,1.2,0.5,1.7,0.9c0.5,0.4,0.8,0.8,1.1,1.3c0.3,0.5,0.4,1.1,0.4,1.7c0,0.5-0.1,0.8-0.4,1
								c-0.3,0.2-0.7,0.4-1.2,0.5l-5.5,0.7c0.2,0.4,0.5,0.8,1,1c0.5,0.2,1.1,0.3,1.7,0.3c0.6,0,1.2-0.1,1.7-0.2
								c0.5-0.1,1-0.3,1.3-0.5c0.2,0.1,0.4,0.3,0.6,0.6c0.2,0.2,0.2,0.5,0.2,0.8c0,0.6-0.3,1-0.9,1.3c-0.5,0.2-1,0.4-1.6,0.5
								C809.8,66.6,809.2,66.6,808.7,66.6z M808.1,58.7c-0.4,0-0.7,0.1-0.9,0.2c-0.3,0.1-0.5,0.2-0.6,0.4c-0.2,0.2-0.3,0.4-0.4,0.6
								s-0.1,0.4-0.1,0.6l3.8-0.6c0-0.3-0.2-0.5-0.5-0.8C809,58.9,808.6,58.7,808.1,58.7z"/>
							<path id="XMLID_241_" fill="#8855B5" d="M818.9,62.9c0,0.3,0.1,0.6,0.4,0.7c0.2,0.1,0.6,0.2,1,0.2c0.2,0,0.5,0,0.7,0
								s0.4-0.1,0.6-0.1c0.1,0.1,0.2,0.3,0.3,0.5c0.1,0.2,0.1,0.4,0.1,0.7c0,0.5-0.2,0.9-0.6,1.2c-0.4,0.3-1.2,0.5-2.2,0.5
								c-1.3,0-2.3-0.3-3-0.8s-1.1-1.4-1.1-2.6v-8.6c0.2,0,0.4-0.1,0.7-0.1s0.6-0.1,1-0.1c0.6,0,1.2,0.1,1.5,0.3
								c0.4,0.2,0.5,0.6,0.5,1.3v1.3h2.9c0.1,0.1,0.2,0.3,0.3,0.6s0.1,0.5,0.1,0.7c0,0.5-0.1,0.8-0.3,1c-0.2,0.2-0.5,0.3-0.9,0.3h-2
								V62.9z"/>
							<path id="XMLID_239_" fill="#8855B5" d="M827.8,62.9c0,0.3,0.1,0.6,0.4,0.7c0.2,0.1,0.6,0.2,1,0.2c0.2,0,0.5,0,0.7,0
								s0.4-0.1,0.6-0.1c0.1,0.1,0.2,0.3,0.3,0.5c0.1,0.2,0.1,0.4,0.1,0.7c0,0.5-0.2,0.9-0.6,1.2c-0.4,0.3-1.2,0.5-2.2,0.5
								c-1.3,0-2.3-0.3-3-0.8s-1.1-1.4-1.1-2.6v-8.6c0.2,0,0.4-0.1,0.7-0.1s0.6-0.1,1-0.1c0.6,0,1.2,0.1,1.5,0.3
								c0.4,0.2,0.5,0.6,0.5,1.3v1.3h2.9c0.1,0.1,0.2,0.3,0.3,0.6s0.1,0.5,0.1,0.7c0,0.5-0.1,0.8-0.3,1c-0.2,0.2-0.5,0.3-0.9,0.3h-2
								V62.9z"/>
							<path id="XMLID_236_" fill="#8855B5" d="M832.8,53.8c0-0.5,0.2-0.9,0.6-1.3c0.4-0.3,0.9-0.5,1.5-0.5c0.6,0,1.1,0.2,1.5,0.5
								c0.4,0.3,0.6,0.8,0.6,1.3c0,0.5-0.2,0.9-0.6,1.3s-0.9,0.5-1.5,0.5c-0.6,0-1.1-0.2-1.5-0.5S832.8,54.4,832.8,53.8z
								 M836.7,66.3c-0.2,0-0.4,0.1-0.7,0.1c-0.3,0-0.6,0.1-1,0.1c-0.3,0-0.6,0-0.9-0.1c-0.3,0-0.5-0.1-0.7-0.2
								c-0.2-0.1-0.3-0.3-0.4-0.5c-0.1-0.2-0.1-0.5-0.1-0.8v-8.2c0.2,0,0.4-0.1,0.7-0.1c0.3,0,0.6-0.1,1-0.1c0.3,0,0.6,0,0.9,0.1
								c0.3,0,0.5,0.1,0.7,0.2c0.2,0.1,0.3,0.3,0.4,0.5s0.1,0.5,0.1,0.8V66.3z"/>
							<path id="XMLID_234_" fill="#8855B5" d="M846,60.1c0-0.4-0.1-0.7-0.4-0.9c-0.3-0.2-0.6-0.3-1.1-0.3c-0.3,0-0.6,0-0.9,0.1
								c-0.3,0.1-0.5,0.2-0.7,0.3v7c-0.1,0-0.4,0.1-0.7,0.1c-0.3,0-0.6,0.1-1,0.1c-0.3,0-0.6,0-0.9-0.1c-0.3,0-0.5-0.1-0.7-0.2
								c-0.2-0.1-0.3-0.3-0.4-0.5c-0.1-0.2-0.1-0.5-0.1-0.8v-6c0-0.4,0.1-0.7,0.3-0.9c0.2-0.2,0.4-0.4,0.7-0.6
								c0.5-0.3,1.1-0.6,1.9-0.8c0.8-0.2,1.6-0.3,2.5-0.3c1.7,0,3,0.3,3.9,1c0.9,0.7,1.4,1.6,1.4,2.8v6.3c-0.1,0-0.4,0.1-0.7,0.1
								c-0.3,0-0.6,0.1-1,0.1c-0.3,0-0.6,0-0.9-0.1c-0.3,0-0.5-0.1-0.7-0.2c-0.2-0.1-0.3-0.3-0.4-0.5c-0.1-0.2-0.1-0.5-0.1-0.8V60.1
								z"/>
							<path id="XMLID_231_" fill="#8855B5" d="M857.3,56.3c0.8,0,1.6,0.1,2.3,0.3c0.7,0.2,1.3,0.4,1.7,0.8c0.3,0.2,0.5,0.4,0.7,0.6
								c0.2,0.2,0.3,0.5,0.3,0.9v7c0,0.7-0.1,1.3-0.4,1.8c-0.3,0.5-0.7,0.9-1.2,1.3c-0.5,0.3-1.1,0.6-1.8,0.8
								c-0.7,0.2-1.4,0.2-2.2,0.2c-1.3,0-2.4-0.2-3.2-0.5c-0.8-0.3-1.2-0.9-1.2-1.6c0-0.3,0.1-0.6,0.2-0.8s0.3-0.4,0.5-0.5
								c0.4,0.2,0.9,0.4,1.4,0.5c0.5,0.1,1.1,0.2,1.7,0.2c0.8,0,1.4-0.1,1.9-0.4c0.5-0.2,0.7-0.6,0.7-1.2v-0.3
								c-0.6,0.2-1.3,0.4-2.2,0.4c-0.7,0-1.3-0.1-1.9-0.3c-0.6-0.2-1.1-0.5-1.6-0.8c-0.5-0.4-0.8-0.9-1.1-1.5
								c-0.3-0.6-0.4-1.3-0.4-2.1c0-0.8,0.1-1.5,0.4-2.1c0.3-0.6,0.7-1.1,1.2-1.5s1.1-0.7,1.8-0.9C855.7,56.3,856.5,56.3,857.3,56.3
								z M858.7,59.2c-0.1-0.1-0.3-0.1-0.5-0.2c-0.2-0.1-0.4-0.1-0.7-0.1c-0.7,0-1.3,0.2-1.6,0.6c-0.4,0.4-0.5,0.9-0.5,1.6
								c0,0.8,0.2,1.3,0.5,1.7c0.4,0.3,0.8,0.5,1.4,0.5c0.6,0,1.1-0.1,1.4-0.4V59.2z"/>
							<path id="XMLID_229_" fill="#8855B5" d="M873.7,63.4c0,1-0.4,1.8-1.3,2.4c-0.8,0.6-2.1,0.9-3.7,0.9c-0.6,0-1.2,0-1.7-0.1
								c-0.5-0.1-1-0.2-1.4-0.4c-0.4-0.2-0.7-0.4-0.9-0.6c-0.2-0.3-0.3-0.6-0.3-0.9c0-0.3,0.1-0.6,0.2-0.8s0.3-0.4,0.5-0.6
								c0.4,0.2,0.9,0.4,1.5,0.6c0.6,0.2,1.2,0.3,1.9,0.3c0.5,0,0.8-0.1,1.1-0.2s0.4-0.3,0.4-0.5c0-0.2-0.1-0.3-0.3-0.4
								c-0.2-0.1-0.5-0.2-0.9-0.3l-0.7-0.1c-1.3-0.2-2.2-0.6-2.9-1.1c-0.6-0.5-0.9-1.2-0.9-2.1c0-0.5,0.1-0.9,0.4-1.3
								c0.2-0.4,0.6-0.7,1-1s0.9-0.5,1.5-0.6c0.6-0.1,1.3-0.2,2-0.2c0.5,0,1.1,0,1.5,0.1c0.5,0.1,0.9,0.2,1.3,0.3
								c0.4,0.1,0.6,0.3,0.8,0.6s0.3,0.5,0.3,0.8c0,0.3-0.1,0.6-0.2,0.8c-0.1,0.2-0.3,0.4-0.5,0.6c-0.1-0.1-0.3-0.1-0.5-0.2
								c-0.2-0.1-0.5-0.1-0.8-0.2c-0.3-0.1-0.6-0.1-0.9-0.2c-0.3,0-0.6-0.1-0.8-0.1c-0.5,0-0.9,0.1-1.1,0.2
								c-0.3,0.1-0.4,0.3-0.4,0.5c0,0.1,0.1,0.3,0.2,0.4c0.1,0.1,0.4,0.2,0.8,0.3l0.7,0.1c1.4,0.3,2.4,0.7,3,1.2
								S873.7,62.6,873.7,63.4z"/>
						</g>
					</g>
				</g>
			</g>
			<g id="XMLID_223_">
				<path id="hn_x5F_link_x5F_2_1_" fill="#CCCCCC" d="M1024,68.1h-97.9c-1,0-1.7-0.8-1.7-1.7v-7.3c0-1,0.8-1.7,1.7-1.7h97.9
					c1,0,1.7,0.8,1.7,1.7v7.3C1025.8,67.4,1025,68.1,1024,68.1z"/>
				<path id="hn_x5F_icon_x5F_2_1_" fill="#CCCCCC" d="M983.5,44.6h-16.7c-1.5,0-2.8-1.2-2.8-2.8V25.1c0-1.5,1.2-2.8,2.8-2.8h16.7
					c1.5,0,2.8,1.2,2.8,2.8v16.7C986.2,43.4,985,44.6,983.5,44.6z"/>
			</g>
			<g id="XMLID_222_">
				<path id="hn_x5F_link_x5F_1_1_" fill="#CCCCCC" d="M736,68.1h-97.9c-1,0-1.7-0.8-1.7-1.7v-7.3c0-1,0.8-1.7,1.7-1.7H736
					c1,0,1.7,0.8,1.7,1.7v7.3C737.7,67.4,736.9,68.1,736,68.1z"/>
				<path id="hn_x5F_icon_x5F_1_1_" fill="#CCCCCC" d="M695.4,44.6h-16.7c-1.5,0-2.8-1.2-2.8-2.8V25.1c0-1.5,1.2-2.8,2.8-2.8h16.7
					c1.5,0,2.8,1.2,2.8,2.8v16.7C698.1,43.4,696.9,44.6,695.4,44.6z"/>
			</g>
		</g>
	</g>
	<g id="XMLID_167_">
		<g id="XMLID_169_">
			<path id="XMLID_193_" fill="#B3B3B3" d="M54.2,254.6c-1.1,0-2,0.3-2.6,0.9c-0.6,0.6-0.9,1.5-0.9,2.7c0,1.2,0.3,2.1,1,2.7
				s1.6,0.9,2.7,0.9c0.6,0,1.1-0.1,1.5-0.2c0.4-0.1,0.8-0.3,1.2-0.5c0.3,0.2,0.4,0.4,0.6,0.7c0.1,0.3,0.2,0.6,0.2,0.9
				c0,0.5-0.3,1-1,1.4c-0.7,0.4-1.7,0.6-3.1,0.6c-1,0-1.9-0.1-2.8-0.4c-0.9-0.3-1.6-0.6-2.3-1.2c-0.7-0.5-1.2-1.2-1.5-2
				c-0.4-0.8-0.6-1.8-0.6-2.9c0-1,0.2-2,0.5-2.8c0.4-0.8,0.9-1.5,1.5-2c0.6-0.5,1.4-1,2.2-1.2c0.8-0.3,1.7-0.4,2.7-0.4
				c1.4,0,2.4,0.2,3.2,0.6s1.1,0.9,1.1,1.5c0,0.3-0.1,0.6-0.3,0.9c-0.2,0.3-0.4,0.5-0.7,0.6c-0.4-0.2-0.8-0.4-1.2-0.6
				C55.3,254.7,54.8,254.6,54.2,254.6z"/>
			<path id="XMLID_191_" fill="#B3B3B3" d="M59.6,254.7c0.1,0,0.4-0.1,0.7-0.1s0.6-0.1,1-0.1c0.3,0,0.6,0,0.9,0.1
				c0.3,0,0.5,0.1,0.7,0.2s0.3,0.3,0.4,0.5c0.1,0.2,0.1,0.5,0.1,0.8v4.3c0,0.5,0.1,0.9,0.4,1.2c0.3,0.2,0.7,0.4,1.3,0.4
				c0.3,0,0.6,0,0.8-0.1c0.2-0.1,0.4-0.1,0.5-0.2v-7c0.1,0,0.4-0.1,0.7-0.1s0.6-0.1,1-0.1c0.3,0,0.6,0,0.9,0.1
				c0.3,0,0.5,0.1,0.7,0.2s0.3,0.3,0.4,0.5c0.1,0.2,0.1,0.5,0.1,0.8v6.1c0,0.7-0.3,1.2-0.9,1.5c-0.5,0.3-1.1,0.5-1.8,0.7
				s-1.5,0.2-2.3,0.2c-0.8,0-1.5-0.1-2.2-0.2c-0.7-0.2-1.3-0.4-1.7-0.7s-0.9-0.8-1.1-1.3s-0.4-1.2-0.4-1.9V254.7z"/>
			<path id="XMLID_189_" fill="#B3B3B3" d="M81.6,261.4c0,1-0.4,1.8-1.3,2.4c-0.8,0.6-2.1,0.9-3.7,0.9c-0.6,0-1.2,0-1.7-0.1
				c-0.5-0.1-1-0.2-1.4-0.4c-0.4-0.2-0.7-0.4-0.9-0.6s-0.3-0.6-0.3-0.9c0-0.3,0.1-0.6,0.2-0.8c0.1-0.2,0.3-0.4,0.5-0.6
				c0.4,0.2,0.9,0.4,1.5,0.6s1.2,0.3,1.9,0.3c0.5,0,0.8-0.1,1.1-0.2c0.2-0.1,0.4-0.3,0.4-0.5c0-0.2-0.1-0.3-0.3-0.4
				c-0.2-0.1-0.5-0.2-0.9-0.3l-0.7-0.1c-1.3-0.2-2.2-0.6-2.9-1.1c-0.6-0.5-0.9-1.2-0.9-2.1c0-0.5,0.1-0.9,0.4-1.3
				c0.2-0.4,0.6-0.7,1-1c0.4-0.3,0.9-0.5,1.5-0.6c0.6-0.1,1.3-0.2,2-0.2c0.5,0,1.1,0,1.5,0.1s0.9,0.2,1.3,0.3
				c0.4,0.1,0.6,0.3,0.8,0.6s0.3,0.5,0.3,0.8c0,0.3-0.1,0.6-0.2,0.8c-0.1,0.2-0.3,0.4-0.5,0.6c-0.1-0.1-0.3-0.1-0.5-0.2
				s-0.5-0.1-0.8-0.2c-0.3-0.1-0.6-0.1-0.9-0.2c-0.3,0-0.6-0.1-0.8-0.1c-0.5,0-0.9,0.1-1.1,0.2c-0.3,0.1-0.4,0.3-0.4,0.5
				c0,0.1,0.1,0.3,0.2,0.4c0.1,0.1,0.4,0.2,0.8,0.3l0.7,0.1c1.4,0.3,2.4,0.7,3,1.2C81.3,259.9,81.6,260.6,81.6,261.4z"/>
			<path id="XMLID_187_" fill="#B3B3B3" d="M87.2,261c0,0.3,0.1,0.6,0.4,0.7c0.2,0.1,0.6,0.2,1,0.2c0.2,0,0.5,0,0.7,0
				s0.4-0.1,0.6-0.1c0.1,0.1,0.2,0.3,0.3,0.5c0.1,0.2,0.1,0.4,0.1,0.7c0,0.5-0.2,0.9-0.6,1.2c-0.4,0.3-1.2,0.5-2.2,0.5
				c-1.3,0-2.3-0.3-3-0.8c-0.7-0.5-1.1-1.4-1.1-2.6v-8.6c0.2,0,0.4-0.1,0.7-0.1c0.3,0,0.6-0.1,1-0.1c0.6,0,1.2,0.1,1.5,0.3
				c0.4,0.2,0.5,0.6,0.5,1.3v1.3h2.9c0.1,0.1,0.2,0.3,0.3,0.6c0.1,0.2,0.1,0.5,0.1,0.7c0,0.5-0.1,0.8-0.3,1
				c-0.2,0.2-0.5,0.3-0.9,0.3h-2V261z"/>
			<path id="XMLID_184_" fill="#B3B3B3" d="M103.3,259.5c0,0.8-0.1,1.6-0.4,2.2c-0.3,0.6-0.7,1.2-1.2,1.6c-0.5,0.4-1.1,0.8-1.8,1
				c-0.7,0.2-1.5,0.3-2.4,0.3s-1.7-0.1-2.4-0.4c-0.7-0.2-1.3-0.6-1.8-1c-0.5-0.4-0.9-1-1.2-1.6c-0.3-0.6-0.4-1.4-0.4-2.2
				c0-0.8,0.1-1.5,0.4-2.1c0.3-0.6,0.7-1.2,1.2-1.6c0.5-0.4,1.1-0.8,1.8-1c0.7-0.2,1.5-0.4,2.4-0.4s1.7,0.1,2.4,0.4s1.3,0.6,1.8,1
				c0.5,0.4,0.9,1,1.2,1.6C103.1,258,103.3,258.7,103.3,259.5z M95.5,259.5c0,0.8,0.2,1.4,0.5,1.9c0.3,0.4,0.8,0.7,1.5,0.7
				c0.6,0,1.1-0.2,1.4-0.7s0.5-1.1,0.5-1.9c0-0.8-0.2-1.4-0.5-1.9c-0.3-0.4-0.8-0.7-1.4-0.7s-1.1,0.2-1.4,0.7
				C95.7,258,95.5,258.7,95.5,259.5z"/>
			<path id="XMLID_182_" fill="#B3B3B3" d="M110.3,254.3c0.6,0,1.2,0.1,1.8,0.2c0.6,0.2,1.1,0.4,1.5,0.7c0.4-0.3,0.9-0.5,1.5-0.7
				c0.6-0.2,1.2-0.3,2-0.3c0.6,0,1.1,0.1,1.6,0.2c0.5,0.1,1,0.3,1.4,0.6s0.8,0.7,1,1.1c0.3,0.5,0.4,1.1,0.4,1.7v6.3
				c-0.1,0-0.4,0.1-0.7,0.1c-0.3,0-0.6,0.1-1,0.1c-0.3,0-0.6,0-0.9-0.1c-0.3,0-0.5-0.1-0.7-0.2c-0.2-0.1-0.3-0.3-0.4-0.5
				c-0.1-0.2-0.1-0.5-0.1-0.8v-4.8c0-0.4-0.1-0.7-0.4-0.9c-0.3-0.2-0.6-0.3-1-0.3c-0.2,0-0.4,0-0.7,0.1s-0.4,0.2-0.5,0.3
				c0,0.1,0,0.1,0,0.2s0,0.1,0,0.1v6.7c-0.2,0-0.4,0.1-0.7,0.1s-0.6,0.1-1,0.1c-0.3,0-0.6,0-0.9-0.1c-0.3,0-0.5-0.1-0.7-0.2
				s-0.3-0.3-0.4-0.5c-0.1-0.2-0.1-0.5-0.1-0.8v-4.8c0-0.4-0.1-0.7-0.4-0.9c-0.3-0.2-0.6-0.3-1-0.3c-0.3,0-0.5,0-0.7,0.1
				c-0.2,0.1-0.4,0.1-0.5,0.2v7c-0.1,0-0.4,0.1-0.7,0.1c-0.3,0-0.6,0.1-1,0.1c-0.3,0-0.6,0-0.9-0.1c-0.3,0-0.5-0.1-0.7-0.2
				s-0.3-0.3-0.4-0.5c-0.1-0.2-0.1-0.5-0.1-0.8v-6c0-0.4,0.1-0.6,0.3-0.9c0.2-0.2,0.4-0.4,0.7-0.6c0.5-0.3,1.1-0.6,1.9-0.8
				S109.5,254.3,110.3,254.3z"/>
			<path id="XMLID_180_" fill="#B3B3B3" d="M127.9,255c-0.1-0.1-0.2-0.3-0.3-0.6c-0.1-0.3-0.1-0.5-0.1-0.8c0-0.5,0.1-0.9,0.4-1.1
				c0.3-0.2,0.6-0.3,1-0.3h9.7c0.1,0.1,0.2,0.3,0.3,0.6c0.1,0.3,0.1,0.5,0.1,0.8c0,0.5-0.1,0.9-0.4,1.1c-0.3,0.2-0.6,0.3-1,0.3h-2.5
				v9.3c-0.2,0-0.4,0.1-0.8,0.1s-0.7,0.1-1,0.1c-0.3,0-0.6,0-0.9-0.1c-0.3,0-0.5-0.1-0.7-0.3c-0.2-0.1-0.3-0.3-0.4-0.5
				c-0.1-0.2-0.1-0.5-0.1-0.8V255H127.9z"/>
			<path id="XMLID_178_" fill="#B3B3B3" d="M151.2,264.3c-0.1,0-0.4,0.1-0.7,0.1s-0.6,0.1-1,0.1c-0.3,0-0.6,0-0.9-0.1
				s-0.5-0.1-0.7-0.2c-0.2-0.1-0.3-0.3-0.4-0.5c-0.1-0.2-0.1-0.5-0.1-0.8v-4.4c0-0.5-0.2-0.9-0.5-1.2c-0.3-0.2-0.7-0.3-1.1-0.3
				c-0.3,0-0.6,0-0.8,0.1c-0.3,0.1-0.5,0.1-0.6,0.2v7c-0.1,0-0.4,0.1-0.7,0.1s-0.6,0.1-1,0.1c-0.3,0-0.6,0-0.9-0.1
				c-0.3,0-0.5-0.1-0.7-0.2c-0.2-0.1-0.3-0.3-0.4-0.5c-0.1-0.2-0.1-0.5-0.1-0.8v-11.6c0.2,0,0.4-0.1,0.7-0.1s0.6-0.1,1-0.1
				c0.3,0,0.6,0,0.9,0.1c0.3,0,0.5,0.1,0.7,0.2c0.2,0.1,0.3,0.3,0.4,0.5c0.1,0.2,0.1,0.5,0.1,0.8v2c0.2-0.1,0.5-0.1,0.9-0.2
				c0.4-0.1,0.8-0.1,1.3-0.1c1.5,0,2.6,0.3,3.4,1s1.2,1.6,1.2,3V264.3z"/>
			<path id="XMLID_175_" fill="#B3B3B3" d="M159.2,264.6c-0.9,0-1.7-0.1-2.4-0.3c-0.7-0.2-1.4-0.6-1.9-1c-0.6-0.4-1-1-1.3-1.7
				s-0.5-1.4-0.5-2.3c0-0.9,0.2-1.6,0.5-2.3c0.3-0.6,0.7-1.2,1.3-1.6c0.5-0.4,1.1-0.7,1.8-0.9c0.7-0.2,1.3-0.3,2-0.3
				c0.8,0,1.5,0.1,2.1,0.3c0.6,0.2,1.2,0.5,1.7,0.9c0.5,0.4,0.8,0.8,1.1,1.3c0.3,0.5,0.4,1.1,0.4,1.7c0,0.5-0.1,0.8-0.4,1
				c-0.3,0.2-0.7,0.4-1.2,0.5l-5.5,0.7c0.2,0.4,0.5,0.8,1,1c0.5,0.2,1.1,0.3,1.7,0.3c0.6,0,1.2-0.1,1.7-0.2c0.5-0.1,1-0.3,1.3-0.5
				c0.2,0.1,0.4,0.3,0.6,0.6c0.2,0.2,0.2,0.5,0.2,0.8c0,0.6-0.3,1-0.9,1.3c-0.5,0.2-1,0.4-1.6,0.5S159.8,264.6,159.2,264.6z
				 M158.6,256.8c-0.4,0-0.7,0.1-0.9,0.2c-0.3,0.1-0.5,0.2-0.6,0.4c-0.2,0.2-0.3,0.4-0.4,0.6s-0.1,0.4-0.1,0.6l3.8-0.6
				c0-0.3-0.2-0.5-0.5-0.8C159.6,256.9,159.2,256.8,158.6,256.8z"/>
			<path id="XMLID_173_" fill="#B3B3B3" d="M170.9,254.3c0.6,0,1.2,0.1,1.8,0.2c0.6,0.2,1.1,0.4,1.5,0.7c0.4-0.3,0.9-0.5,1.5-0.7
				c0.6-0.2,1.2-0.3,2-0.3c0.6,0,1.1,0.1,1.6,0.2c0.5,0.1,1,0.3,1.4,0.6s0.8,0.7,1,1.1c0.3,0.5,0.4,1.1,0.4,1.7v6.3
				c-0.1,0-0.4,0.1-0.7,0.1c-0.3,0-0.6,0.1-1,0.1c-0.3,0-0.6,0-0.9-0.1c-0.3,0-0.5-0.1-0.7-0.2c-0.2-0.1-0.3-0.3-0.4-0.5
				c-0.1-0.2-0.1-0.5-0.1-0.8v-4.8c0-0.4-0.1-0.7-0.4-0.9c-0.3-0.2-0.6-0.3-1-0.3c-0.2,0-0.4,0-0.7,0.1s-0.4,0.2-0.5,0.3
				c0,0.1,0,0.1,0,0.2s0,0.1,0,0.1v6.7c-0.2,0-0.4,0.1-0.7,0.1s-0.6,0.1-1,0.1c-0.3,0-0.6,0-0.9-0.1c-0.3,0-0.5-0.1-0.7-0.2
				s-0.3-0.3-0.4-0.5c-0.1-0.2-0.1-0.5-0.1-0.8v-4.8c0-0.4-0.1-0.7-0.4-0.9c-0.3-0.2-0.6-0.3-1-0.3c-0.3,0-0.5,0-0.7,0.1
				c-0.2,0.1-0.4,0.1-0.5,0.2v7c-0.1,0-0.4,0.1-0.7,0.1c-0.3,0-0.6,0.1-1,0.1c-0.3,0-0.6,0-0.9-0.1c-0.3,0-0.5-0.1-0.7-0.2
				s-0.3-0.3-0.4-0.5c-0.1-0.2-0.1-0.5-0.1-0.8v-6c0-0.4,0.1-0.6,0.3-0.9c0.2-0.2,0.4-0.4,0.7-0.6c0.5-0.3,1.1-0.6,1.9-0.8
				S170,254.3,170.9,254.3z"/>
			<path id="XMLID_170_" fill="#B3B3B3" d="M190.1,264.6c-0.9,0-1.7-0.1-2.4-0.3c-0.7-0.2-1.4-0.6-1.9-1c-0.6-0.4-1-1-1.3-1.7
				s-0.5-1.4-0.5-2.3c0-0.9,0.2-1.6,0.5-2.3c0.3-0.6,0.7-1.2,1.3-1.6c0.5-0.4,1.1-0.7,1.8-0.9c0.7-0.2,1.3-0.3,2-0.3
				c0.8,0,1.5,0.1,2.1,0.3c0.6,0.2,1.2,0.5,1.7,0.9c0.5,0.4,0.8,0.8,1.1,1.3c0.3,0.5,0.4,1.1,0.4,1.7c0,0.5-0.1,0.8-0.4,1
				c-0.3,0.2-0.7,0.4-1.2,0.5l-5.5,0.7c0.2,0.4,0.5,0.8,1,1c0.5,0.2,1.1,0.3,1.7,0.3c0.6,0,1.2-0.1,1.7-0.2c0.5-0.1,1-0.3,1.3-0.5
				c0.2,0.1,0.4,0.3,0.6,0.6c0.2,0.2,0.2,0.5,0.2,0.8c0,0.6-0.3,1-0.9,1.3c-0.5,0.2-1,0.4-1.6,0.5S190.6,264.6,190.1,264.6z
				 M189.5,256.8c-0.4,0-0.7,0.1-0.9,0.2c-0.3,0.1-0.5,0.2-0.6,0.4c-0.2,0.2-0.3,0.4-0.4,0.6s-0.1,0.4-0.1,0.6l3.8-0.6
				c0-0.3-0.2-0.5-0.5-0.8C190.5,256.9,190.1,256.8,189.5,256.8z"/>
		</g>
	</g>
	<g id="XMLID_139_">
		<path id="XMLID_164_" fill="#8855B5" d="M265.9,104.4c0.3-0.2,0.6-0.3,1.2-0.4c0.5-0.1,1-0.2,1.6-0.2c0.8,0,1.4,0.1,2,0.3
			c0.6,0.2,1,0.6,1.1,1c0.3,0.8,0.6,1.7,0.9,2.7c0.3,1,0.6,2.1,1,3.2c0.3,1.1,0.6,2.2,0.9,3.3c0.3,1.1,0.6,2,0.8,2.9
			c-0.2,0.2-0.5,0.4-0.8,0.5c-0.4,0.1-0.8,0.2-1.3,0.2c-0.4,0-0.7,0-0.9-0.1c-0.3-0.1-0.5-0.2-0.6-0.3c-0.2-0.1-0.3-0.3-0.4-0.5
			c-0.1-0.2-0.2-0.4-0.3-0.7l-0.4-1.6h-4.1c-0.1,0.5-0.2,0.9-0.4,1.4c-0.1,0.5-0.2,1-0.4,1.4c-0.2,0.1-0.4,0.1-0.7,0.2
			c-0.2,0.1-0.5,0.1-0.9,0.1c-0.8,0-1.3-0.1-1.7-0.4c-0.4-0.3-0.6-0.6-0.6-1.1c0-0.2,0-0.4,0.1-0.6s0.1-0.5,0.2-0.7
			c0.1-0.4,0.3-0.9,0.4-1.5c0.2-0.6,0.4-1.3,0.6-2c0.2-0.7,0.5-1.4,0.7-2.2c0.3-0.7,0.5-1.4,0.7-2.1c0.2-0.7,0.4-1.2,0.6-1.8
			C265.7,105.1,265.8,104.7,265.9,104.4z M268.6,107.4c-0.2,0.6-0.5,1.3-0.7,2.1s-0.5,1.6-0.7,2.4h2.8c-0.2-0.8-0.4-1.6-0.6-2.4
			c-0.2-0.8-0.4-1.5-0.6-2.1H268.6z"/>
		<path id="XMLID_161_" fill="#8855B5" d="M282,106.4c0.9,0,1.8,0.1,2.5,0.4s1.4,0.6,2,1.1c0.6,0.5,1,1.1,1.3,1.8
			c0.3,0.7,0.5,1.6,0.5,2.6c0,1-0.1,1.8-0.4,2.5c-0.3,0.7-0.7,1.3-1.2,1.8c-0.5,0.5-1.1,0.9-1.8,1.1c-0.7,0.2-1.5,0.4-2.3,0.4
			c-0.7,0-1.3-0.1-1.8-0.3v3.8c-0.2,0-0.4,0.1-0.7,0.1c-0.3,0.1-0.7,0.1-1,0.1c-0.3,0-0.6,0-0.9-0.1c-0.3,0-0.5-0.1-0.7-0.3
			c-0.2-0.1-0.3-0.3-0.4-0.6c-0.1-0.2-0.1-0.5-0.1-0.9v-10.9c0-0.4,0.1-0.7,0.3-1c0.2-0.3,0.4-0.5,0.7-0.7c0.5-0.3,1.1-0.5,1.7-0.7
			C280.3,106.5,281.1,106.4,282,106.4z M282,115.1c1.6,0,2.3-0.9,2.3-2.8c0-1-0.2-1.7-0.6-2.2s-0.9-0.7-1.7-0.7
			c-0.3,0-0.5,0-0.8,0.1c-0.2,0.1-0.4,0.1-0.6,0.2v5c0.2,0.1,0.4,0.2,0.6,0.2C281.5,115.1,281.8,115.1,282,115.1z"/>
		<path id="XMLID_158_" fill="#8855B5" d="M295.2,106.4c0.9,0,1.8,0.1,2.5,0.4s1.4,0.6,2,1.1c0.6,0.5,1,1.1,1.3,1.8
			c0.3,0.7,0.5,1.6,0.5,2.6c0,1-0.1,1.8-0.4,2.5c-0.3,0.7-0.7,1.3-1.2,1.8c-0.5,0.5-1.1,0.9-1.8,1.1c-0.7,0.2-1.5,0.4-2.3,0.4
			c-0.7,0-1.3-0.1-1.8-0.3v3.8c-0.2,0-0.4,0.1-0.7,0.1c-0.3,0.1-0.7,0.1-1,0.1c-0.3,0-0.6,0-0.9-0.1c-0.3,0-0.5-0.1-0.7-0.3
			c-0.2-0.1-0.3-0.3-0.4-0.6c-0.1-0.2-0.1-0.5-0.1-0.9v-10.9c0-0.4,0.1-0.7,0.3-1c0.2-0.3,0.4-0.5,0.7-0.7c0.5-0.3,1.1-0.5,1.7-0.7
			C293.6,106.5,294.4,106.4,295.2,106.4z M295.3,115.1c1.6,0,2.3-0.9,2.3-2.8c0-1-0.2-1.7-0.6-2.2s-0.9-0.7-1.7-0.7
			c-0.3,0-0.5,0-0.8,0.1c-0.2,0.1-0.4,0.1-0.6,0.2v5c0.2,0.1,0.4,0.2,0.6,0.2C294.8,115.1,295,115.1,295.3,115.1z"/>
		<path id="XMLID_155_" fill="#8855B5" d="M309.3,118.1c-0.9,0-1.7-0.1-2.5-0.4c-0.8-0.2-1.4-0.6-2-1.1c-0.6-0.5-1-1.1-1.3-1.9
			c-0.3-0.8-0.5-1.6-0.5-2.7c0-1,0.2-1.9,0.5-2.6c0.3-0.7,0.8-1.3,1.3-1.8c0.5-0.5,1.1-0.8,1.8-1c0.7-0.2,1.4-0.3,2.1-0.3
			c0.8,0,1.5,0.1,2.2,0.4s1.2,0.6,1.7,1s0.8,0.9,1.1,1.5c0.3,0.6,0.4,1.2,0.4,1.9c0,0.5-0.1,0.9-0.4,1.2c-0.3,0.3-0.7,0.4-1.2,0.5
			l-5.6,0.8c0.2,0.5,0.5,0.9,1,1.1c0.5,0.3,1.1,0.4,1.8,0.4c0.6,0,1.2-0.1,1.8-0.2c0.6-0.2,1-0.3,1.4-0.6c0.2,0.2,0.4,0.4,0.6,0.6
			c0.2,0.3,0.2,0.6,0.2,0.9c0,0.7-0.3,1.2-1,1.5c-0.5,0.3-1,0.4-1.6,0.5C310.4,118.1,309.8,118.1,309.3,118.1z M308.7,109.2
			c-0.4,0-0.7,0.1-0.9,0.2s-0.5,0.3-0.6,0.5c-0.2,0.2-0.3,0.4-0.4,0.6c-0.1,0.2-0.1,0.5-0.1,0.7l3.9-0.6c0-0.3-0.2-0.6-0.5-0.9
			C309.6,109.4,309.2,109.2,308.7,109.2z"/>
		<path id="XMLID_152_" fill="#8855B5" d="M320.4,106.4c0.8,0,1.6,0.1,2.2,0.2c0.7,0.2,1.2,0.4,1.7,0.8c0.5,0.3,0.8,0.8,1.1,1.3
			s0.4,1.1,0.4,1.8v5.1c0,0.4-0.1,0.7-0.3,1c-0.2,0.2-0.5,0.5-0.8,0.6c-1,0.6-2.4,0.9-4.2,0.9c-0.8,0-1.5-0.1-2.2-0.2
			c-0.6-0.2-1.2-0.4-1.7-0.7c-0.5-0.3-0.8-0.7-1.1-1.2c-0.3-0.5-0.4-1-0.4-1.6c0-1,0.3-1.8,0.9-2.4c0.6-0.6,1.6-0.9,2.9-1l3-0.3
			v-0.2c0-0.4-0.2-0.8-0.6-0.9s-0.9-0.3-1.7-0.3c-0.6,0-1.1,0.1-1.7,0.2c-0.5,0.1-1,0.3-1.5,0.5c-0.2-0.1-0.4-0.3-0.5-0.6
			c-0.1-0.3-0.2-0.6-0.2-0.9c0-0.4,0.1-0.7,0.3-0.9c0.2-0.2,0.5-0.4,0.9-0.6c0.4-0.2,1-0.3,1.6-0.4
			C319.4,106.5,319.9,106.4,320.4,106.4z M320.6,115.3c0.3,0,0.5,0,0.9-0.1c0.3-0.1,0.5-0.1,0.7-0.2v-1.8l-1.6,0.1
			c-0.4,0-0.8,0.1-1,0.3c-0.3,0.2-0.4,0.4-0.4,0.7s0.1,0.5,0.4,0.7C319.7,115.2,320.1,115.3,320.6,115.3z"/>
		<path id="XMLID_150_" fill="#8855B5" d="M332.1,117.8c-0.2,0-0.4,0.1-0.7,0.1c-0.3,0-0.7,0.1-1,0.1c-0.3,0-0.6,0-0.9-0.1
			c-0.3,0-0.5-0.1-0.7-0.3c-0.2-0.1-0.3-0.3-0.4-0.6c-0.1-0.2-0.1-0.5-0.1-0.9v-6.8c0-0.3,0.1-0.6,0.2-0.9c0.1-0.2,0.3-0.5,0.6-0.7
			c0.2-0.2,0.5-0.4,0.9-0.5c0.4-0.2,0.7-0.3,1.1-0.4c0.4-0.1,0.8-0.2,1.3-0.3c0.4-0.1,0.9-0.1,1.3-0.1c0.7,0,1.3,0.1,1.7,0.4
			c0.4,0.3,0.6,0.7,0.6,1.4c0,0.2,0,0.4-0.1,0.6s-0.1,0.4-0.2,0.6c-0.3,0-0.6,0-1,0c-0.3,0-0.7,0.1-1,0.1c-0.3,0.1-0.6,0.1-0.9,0.2
			s-0.5,0.1-0.7,0.2V117.8z"/>
		<path id="XMLID_147_" fill="#8855B5" d="M341.8,106.4c0.8,0,1.6,0.1,2.2,0.2c0.7,0.2,1.2,0.4,1.7,0.8c0.5,0.3,0.8,0.8,1.1,1.3
			s0.4,1.1,0.4,1.8v5.1c0,0.4-0.1,0.7-0.3,1c-0.2,0.2-0.5,0.5-0.8,0.6c-1,0.6-2.4,0.9-4.2,0.9c-0.8,0-1.5-0.1-2.2-0.2
			c-0.6-0.2-1.2-0.4-1.7-0.7c-0.5-0.3-0.8-0.7-1.1-1.2c-0.3-0.5-0.4-1-0.4-1.6c0-1,0.3-1.8,0.9-2.4c0.6-0.6,1.6-0.9,2.9-1l3-0.3
			v-0.2c0-0.4-0.2-0.8-0.6-0.9s-0.9-0.3-1.7-0.3c-0.6,0-1.1,0.1-1.7,0.2c-0.5,0.1-1,0.3-1.5,0.5c-0.2-0.1-0.4-0.3-0.5-0.6
			c-0.1-0.3-0.2-0.6-0.2-0.9c0-0.4,0.1-0.7,0.3-0.9c0.2-0.2,0.5-0.4,0.9-0.6c0.4-0.2,1-0.3,1.6-0.4
			C340.7,106.5,341.2,106.4,341.8,106.4z M342,115.3c0.3,0,0.5,0,0.9-0.1c0.3-0.1,0.5-0.1,0.7-0.2v-1.8l-1.6,0.1
			c-0.4,0-0.8,0.1-1,0.3c-0.3,0.2-0.4,0.4-0.4,0.7s0.1,0.5,0.4,0.7C341,115.2,341.4,115.3,342,115.3z"/>
		<path id="XMLID_145_" fill="#8855B5" d="M356.6,110.8c0-0.5-0.1-0.8-0.4-1c-0.3-0.2-0.6-0.3-1.1-0.3c-0.3,0-0.6,0-0.9,0.1
			c-0.3,0.1-0.5,0.2-0.8,0.3v7.9c-0.2,0-0.4,0.1-0.7,0.1c-0.3,0-0.7,0.1-1,0.1c-0.3,0-0.6,0-0.9-0.1c-0.3,0-0.5-0.1-0.7-0.3
			c-0.2-0.1-0.3-0.3-0.4-0.6c-0.1-0.2-0.1-0.5-0.1-0.9v-6.8c0-0.4,0.1-0.7,0.3-1c0.2-0.3,0.4-0.5,0.7-0.7c0.5-0.4,1.2-0.7,1.9-0.9
			c0.8-0.2,1.6-0.3,2.6-0.3c1.7,0,3,0.4,3.9,1.1c0.9,0.7,1.4,1.8,1.4,3.1v7.1c-0.2,0-0.4,0.1-0.7,0.1c-0.3,0-0.7,0.1-1,0.1
			c-0.3,0-0.6,0-0.9-0.1c-0.3,0-0.5-0.1-0.7-0.3c-0.2-0.1-0.3-0.3-0.4-0.6c-0.1-0.2-0.1-0.5-0.1-0.9V110.8z"/>
		<path id="XMLID_143_" fill="#8855B5" d="M369,109.5c-0.4,0-0.7,0.1-1.1,0.2c-0.3,0.1-0.6,0.3-0.9,0.5s-0.5,0.5-0.6,0.9
			c-0.2,0.3-0.2,0.8-0.2,1.2c0,0.9,0.3,1.6,0.8,2.1c0.5,0.5,1.2,0.7,2,0.7c0.5,0,0.8-0.1,1.2-0.2c0.3-0.1,0.6-0.2,0.9-0.3
			c0.3,0.2,0.5,0.4,0.7,0.7c0.2,0.2,0.2,0.5,0.2,0.9c0,0.6-0.3,1.1-0.9,1.4c-0.6,0.3-1.4,0.5-2.5,0.5c-1,0-1.8-0.1-2.6-0.4
			c-0.8-0.3-1.4-0.7-2-1.2c-0.6-0.5-1-1.1-1.3-1.8c-0.3-0.7-0.5-1.5-0.5-2.4c0-1,0.2-1.9,0.5-2.6c0.3-0.7,0.8-1.4,1.3-1.8
			s1.2-0.8,1.9-1.1s1.5-0.4,2.3-0.4c1.1,0,1.9,0.2,2.5,0.6s0.9,0.9,0.9,1.5c0,0.3-0.1,0.6-0.2,0.8c-0.1,0.3-0.3,0.5-0.5,0.6
			c-0.3-0.1-0.6-0.2-0.9-0.4C369.8,109.5,369.4,109.5,369,109.5z"/>
		<path id="XMLID_140_" fill="#8855B5" d="M379.4,118.1c-0.9,0-1.7-0.1-2.5-0.4c-0.8-0.2-1.4-0.6-2-1.1c-0.6-0.5-1-1.1-1.3-1.9
			c-0.3-0.8-0.5-1.6-0.5-2.7c0-1,0.2-1.9,0.5-2.6c0.3-0.7,0.8-1.3,1.3-1.8c0.5-0.5,1.1-0.8,1.8-1c0.7-0.2,1.4-0.3,2.1-0.3
			c0.8,0,1.5,0.1,2.2,0.4s1.2,0.6,1.7,1s0.8,0.9,1.1,1.5c0.3,0.6,0.4,1.2,0.4,1.9c0,0.5-0.1,0.9-0.4,1.2c-0.3,0.3-0.7,0.4-1.2,0.5
			l-5.6,0.8c0.2,0.5,0.5,0.9,1,1.1c0.5,0.3,1.1,0.4,1.8,0.4c0.6,0,1.2-0.1,1.8-0.2c0.6-0.2,1-0.3,1.4-0.6c0.2,0.2,0.4,0.4,0.6,0.6
			c0.2,0.3,0.2,0.6,0.2,0.9c0,0.7-0.3,1.2-1,1.5c-0.5,0.3-1,0.4-1.6,0.5C380.5,118.1,379.9,118.1,379.4,118.1z M378.8,109.2
			c-0.4,0-0.7,0.1-0.9,0.2s-0.5,0.3-0.6,0.5c-0.2,0.2-0.3,0.4-0.4,0.6c-0.1,0.2-0.1,0.5-0.1,0.7l3.9-0.6c0-0.3-0.2-0.6-0.5-0.9
			C379.7,109.4,379.3,109.2,378.8,109.2z"/>
	</g>

		<line id="XMLID_138_" fill="none" stroke="#CCCCCC" stroke-width="4" stroke-miterlimit="10" x1="0.8" y1="82.7" x2="1059.8" y2="82.7"/>
	<path id="horizontal_x5F_frame_3_" fill="#CCCCCC" d="M389.9,402.8H50.3c-4.7,0-8.5-3.8-8.5-8.5V291.4c0-4.7,3.8-8.5,8.5-8.5h339.6
		c4.7,0,8.5,3.8,8.5,8.5v102.9C398.4,399,394.6,402.8,389.9,402.8z"/>
	<g id="XMLID_39_">
		<g id="XMLID_41_">
			<path id="XMLID_87_" fill="#8855B5" d="M61.2,315.1c-0.2,0-0.4,0.1-0.8,0.1c-0.3,0-0.7,0.1-1,0.1s-0.6,0-0.9-0.1
				c-0.3,0-0.5-0.1-0.7-0.3s-0.3-0.3-0.4-0.5c-0.1-0.2-0.1-0.5-0.1-0.8v-9.4c0-0.3,0.1-0.5,0.3-0.7c0.2-0.2,0.4-0.3,0.7-0.4
				c0.5-0.2,1.1-0.3,1.7-0.4c0.6-0.1,1.3-0.1,1.9-0.1c2,0,3.6,0.4,4.7,1.2c1.1,0.8,1.6,1.9,1.6,3.2c0,0.7-0.1,1.2-0.3,1.8
				c-0.2,0.5-0.6,1-1,1.4s-1,0.7-1.7,0.9c-0.7,0.2-1.5,0.3-2.4,0.3h-1.6V315.1z M62.4,308.7c0.6,0,1.1-0.1,1.4-0.4
				c0.3-0.3,0.5-0.7,0.5-1.2c0-0.5-0.2-0.9-0.5-1.2c-0.3-0.3-0.9-0.4-1.5-0.4c-0.2,0-0.4,0-0.6,0s-0.3,0-0.5,0v3.1H62.4z"/>
			<path id="XMLID_84_" fill="#8855B5" d="M74.1,305.2c0.8,0,1.5,0.1,2.2,0.2c0.7,0.1,1.2,0.4,1.7,0.7s0.8,0.7,1.1,1.1
				c0.3,0.5,0.4,1,0.4,1.6v4.5c0,0.3-0.1,0.6-0.3,0.9c-0.2,0.2-0.5,0.4-0.8,0.6c-1,0.5-2.3,0.8-4.1,0.8c-0.8,0-1.5-0.1-2.1-0.2
				c-0.6-0.1-1.2-0.3-1.6-0.6c-0.5-0.3-0.8-0.6-1-1s-0.4-0.9-0.4-1.4c0-0.9,0.3-1.6,0.9-2.1c0.6-0.5,1.5-0.8,2.8-0.9l2.9-0.3v-0.1
				c0-0.4-0.2-0.7-0.6-0.8c-0.4-0.2-0.9-0.3-1.6-0.3c-0.6,0-1.1,0.1-1.6,0.2c-0.5,0.1-1,0.2-1.4,0.4c-0.2-0.1-0.4-0.3-0.5-0.6
				s-0.2-0.5-0.2-0.8c0-0.3,0.1-0.6,0.3-0.8c0.2-0.2,0.5-0.4,0.9-0.5c0.4-0.1,0.9-0.3,1.5-0.3C73.1,305.2,73.6,305.2,74.1,305.2z
				 M74.3,313c0.3,0,0.5,0,0.8-0.1c0.3,0,0.5-0.1,0.7-0.2v-1.6l-1.6,0.1c-0.4,0-0.8,0.1-1,0.2c-0.3,0.1-0.4,0.3-0.4,0.6
				c0,0.3,0.1,0.5,0.3,0.7S73.8,313,74.3,313z"/>
			<path id="XMLID_82_" fill="#8855B5" d="M90.8,312.3c0,1-0.4,1.8-1.3,2.4c-0.8,0.6-2.1,0.9-3.7,0.9c-0.6,0-1.2,0-1.7-0.1
				c-0.5-0.1-1-0.2-1.4-0.4c-0.4-0.2-0.7-0.4-0.9-0.6s-0.3-0.6-0.3-0.9c0-0.3,0.1-0.6,0.2-0.8c0.1-0.2,0.3-0.4,0.5-0.6
				c0.4,0.2,0.9,0.4,1.5,0.6s1.2,0.3,1.9,0.3c0.5,0,0.8-0.1,1.1-0.2c0.2-0.1,0.4-0.3,0.4-0.5c0-0.2-0.1-0.3-0.3-0.4
				c-0.2-0.1-0.5-0.2-0.9-0.3l-0.7-0.1c-1.3-0.2-2.2-0.6-2.9-1.1c-0.6-0.5-0.9-1.2-0.9-2.1c0-0.5,0.1-0.9,0.4-1.3
				c0.2-0.4,0.6-0.7,1-1c0.4-0.3,0.9-0.5,1.5-0.6c0.6-0.1,1.3-0.2,2-0.2c0.5,0,1.1,0,1.5,0.1s0.9,0.2,1.3,0.3
				c0.4,0.1,0.6,0.3,0.8,0.6s0.3,0.5,0.3,0.8c0,0.3-0.1,0.6-0.2,0.8c-0.1,0.2-0.3,0.4-0.5,0.6c-0.1-0.1-0.3-0.1-0.5-0.2
				s-0.5-0.1-0.8-0.2c-0.3-0.1-0.6-0.1-0.9-0.2c-0.3,0-0.6-0.1-0.8-0.1c-0.5,0-0.9,0.1-1.1,0.2c-0.3,0.1-0.4,0.3-0.4,0.5
				c0,0.1,0.1,0.3,0.2,0.4c0.1,0.1,0.4,0.2,0.8,0.3l0.7,0.1c1.4,0.3,2.4,0.7,3,1.2C90.5,310.8,90.8,311.5,90.8,312.3z"/>
			<path id="XMLID_80_" fill="#8855B5" d="M96.4,311.8c0,0.3,0.1,0.6,0.4,0.7c0.2,0.1,0.6,0.2,1,0.2c0.2,0,0.5,0,0.7,0
				s0.4-0.1,0.6-0.1c0.1,0.1,0.2,0.3,0.3,0.5c0.1,0.2,0.1,0.4,0.1,0.7c0,0.5-0.2,0.9-0.6,1.2c-0.4,0.3-1.2,0.5-2.2,0.5
				c-1.3,0-2.3-0.3-3-0.8c-0.7-0.5-1.1-1.4-1.1-2.6v-8.6c0.2,0,0.4-0.1,0.7-0.1c0.3,0,0.6-0.1,1-0.1c0.6,0,1.2,0.1,1.5,0.3
				c0.4,0.2,0.5,0.6,0.5,1.3v1.3h2.9c0.1,0.1,0.2,0.3,0.3,0.6c0.1,0.2,0.1,0.5,0.1,0.7c0,0.5-0.1,0.8-0.3,1
				c-0.2,0.2-0.5,0.3-0.9,0.3h-2V311.8z"/>
			<path id="XMLID_77_" fill="#8855B5" d="M107.1,315.5c-0.9,0-1.7-0.1-2.4-0.3c-0.7-0.2-1.4-0.6-1.9-1c-0.6-0.4-1-1-1.3-1.7
				s-0.5-1.4-0.5-2.3c0-0.9,0.2-1.6,0.5-2.3c0.3-0.6,0.7-1.2,1.3-1.6c0.5-0.4,1.1-0.7,1.8-0.9c0.7-0.2,1.3-0.3,2-0.3
				c0.8,0,1.5,0.1,2.1,0.3c0.6,0.2,1.2,0.5,1.7,0.9c0.5,0.4,0.8,0.8,1.1,1.3c0.3,0.5,0.4,1.1,0.4,1.7c0,0.5-0.1,0.8-0.4,1
				c-0.3,0.2-0.7,0.4-1.2,0.5l-5.5,0.7c0.2,0.4,0.5,0.8,1,1c0.5,0.2,1.1,0.3,1.7,0.3c0.6,0,1.2-0.1,1.7-0.2c0.5-0.1,1-0.3,1.3-0.5
				c0.2,0.1,0.4,0.3,0.6,0.6c0.2,0.2,0.2,0.5,0.2,0.8c0,0.6-0.3,1-0.9,1.3c-0.5,0.2-1,0.4-1.6,0.5S107.6,315.5,107.1,315.5z
				 M106.4,307.6c-0.4,0-0.7,0.1-0.9,0.2c-0.3,0.1-0.5,0.2-0.6,0.4c-0.2,0.2-0.3,0.4-0.4,0.6s-0.1,0.4-0.1,0.6l3.8-0.6
				c0-0.3-0.2-0.5-0.5-0.8C107.4,307.8,107,307.6,106.4,307.6z"/>
			<path id="XMLID_75_" fill="#8855B5" d="M121.7,311.8c0,0.3,0.1,0.6,0.4,0.7c0.2,0.1,0.6,0.2,1,0.2c0.2,0,0.5,0,0.7,0
				s0.4-0.1,0.6-0.1c0.1,0.1,0.2,0.3,0.3,0.5c0.1,0.2,0.1,0.4,0.1,0.7c0,0.5-0.2,0.9-0.6,1.2c-0.4,0.3-1.2,0.5-2.2,0.5
				c-1.3,0-2.3-0.3-3-0.8c-0.7-0.5-1.1-1.4-1.1-2.6v-8.6c0.2,0,0.4-0.1,0.7-0.1c0.3,0,0.6-0.1,1-0.1c0.6,0,1.2,0.1,1.5,0.3
				c0.4,0.2,0.5,0.6,0.5,1.3v1.3h2.9c0.1,0.1,0.2,0.3,0.3,0.6c0.1,0.2,0.1,0.5,0.1,0.7c0,0.5-0.1,0.8-0.3,1
				c-0.2,0.2-0.5,0.3-0.9,0.3h-2V311.8z"/>
			<path id="XMLID_73_" fill="#8855B5" d="M137.4,315.2c-0.1,0-0.4,0.1-0.7,0.1s-0.6,0.1-1,0.1c-0.3,0-0.6,0-0.9-0.1
				s-0.5-0.1-0.7-0.2c-0.2-0.1-0.3-0.3-0.4-0.5c-0.1-0.2-0.1-0.5-0.1-0.8v-4.4c0-0.5-0.2-0.9-0.5-1.2c-0.3-0.2-0.7-0.3-1.1-0.3
				c-0.3,0-0.6,0-0.8,0.1c-0.3,0.1-0.5,0.1-0.6,0.2v7c-0.1,0-0.4,0.1-0.7,0.1s-0.6,0.1-1,0.1c-0.3,0-0.6,0-0.9-0.1
				c-0.3,0-0.5-0.1-0.7-0.2c-0.2-0.1-0.3-0.3-0.4-0.5c-0.1-0.2-0.1-0.5-0.1-0.8v-11.6c0.2,0,0.4-0.1,0.7-0.1s0.6-0.1,1-0.1
				c0.3,0,0.6,0,0.9,0.1c0.3,0,0.5,0.1,0.7,0.2c0.2,0.1,0.3,0.3,0.4,0.5c0.1,0.2,0.1,0.5,0.1,0.8v2c0.2-0.1,0.5-0.1,0.9-0.2
				c0.4-0.1,0.8-0.1,1.3-0.1c1.5,0,2.6,0.3,3.4,1s1.2,1.6,1.2,3V315.2z"/>
			<path id="XMLID_70_" fill="#8855B5" d="M145.4,315.5c-0.9,0-1.7-0.1-2.4-0.3c-0.7-0.2-1.4-0.6-1.9-1c-0.6-0.4-1-1-1.3-1.7
				s-0.5-1.4-0.5-2.3c0-0.9,0.2-1.6,0.5-2.3c0.3-0.6,0.7-1.2,1.3-1.6c0.5-0.4,1.1-0.7,1.8-0.9c0.7-0.2,1.3-0.3,2-0.3
				c0.8,0,1.5,0.1,2.1,0.3c0.6,0.2,1.2,0.5,1.7,0.9c0.5,0.4,0.8,0.8,1.1,1.3c0.3,0.5,0.4,1.1,0.4,1.7c0,0.5-0.1,0.8-0.4,1
				c-0.3,0.2-0.7,0.4-1.2,0.5l-5.5,0.7c0.2,0.4,0.5,0.8,1,1c0.5,0.2,1.1,0.3,1.7,0.3c0.6,0,1.2-0.1,1.7-0.2c0.5-0.1,1-0.3,1.3-0.5
				c0.2,0.1,0.4,0.3,0.6,0.6c0.2,0.2,0.2,0.5,0.2,0.8c0,0.6-0.3,1-0.9,1.3c-0.5,0.2-1,0.4-1.6,0.5S146,315.5,145.4,315.5z
				 M144.8,307.6c-0.4,0-0.7,0.1-0.9,0.2c-0.3,0.1-0.5,0.2-0.6,0.4c-0.2,0.2-0.3,0.4-0.4,0.6s-0.1,0.4-0.1,0.6l3.8-0.6
				c0-0.3-0.2-0.5-0.5-0.8C145.8,307.8,145.4,307.6,144.8,307.6z"/>
			<path id="XMLID_68_" fill="#8855B5" d="M157.1,305.2c0.6,0,1.2,0.1,1.8,0.2c0.6,0.2,1.1,0.4,1.5,0.7c0.4-0.3,0.9-0.5,1.5-0.7
				c0.6-0.2,1.2-0.3,2-0.3c0.6,0,1.1,0.1,1.6,0.2c0.5,0.1,1,0.3,1.4,0.6s0.8,0.7,1,1.1c0.3,0.5,0.4,1.1,0.4,1.7v6.3
				c-0.1,0-0.4,0.1-0.7,0.1c-0.3,0-0.6,0.1-1,0.1c-0.3,0-0.6,0-0.9-0.1c-0.3,0-0.5-0.1-0.7-0.2c-0.2-0.1-0.3-0.3-0.4-0.5
				c-0.1-0.2-0.1-0.5-0.1-0.8V309c0-0.4-0.1-0.7-0.4-0.9c-0.3-0.2-0.6-0.3-1-0.3c-0.2,0-0.4,0-0.7,0.1s-0.4,0.2-0.5,0.3
				c0,0.1,0,0.1,0,0.2s0,0.1,0,0.1v6.7c-0.2,0-0.4,0.1-0.7,0.1s-0.6,0.1-1,0.1c-0.3,0-0.6,0-0.9-0.1c-0.3,0-0.5-0.1-0.7-0.2
				s-0.3-0.3-0.4-0.5c-0.1-0.2-0.1-0.5-0.1-0.8V309c0-0.4-0.1-0.7-0.4-0.9c-0.3-0.2-0.6-0.3-1-0.3c-0.3,0-0.5,0-0.7,0.1
				c-0.2,0.1-0.4,0.1-0.5,0.2v7c-0.1,0-0.4,0.1-0.7,0.1c-0.3,0-0.6,0.1-1,0.1c-0.3,0-0.6,0-0.9-0.1c-0.3,0-0.5-0.1-0.7-0.2
				s-0.3-0.3-0.4-0.5c-0.1-0.2-0.1-0.5-0.1-0.8v-6c0-0.4,0.1-0.6,0.3-0.9c0.2-0.2,0.4-0.4,0.7-0.6c0.5-0.3,1.1-0.6,1.9-0.8
				S156.3,305.2,157.1,305.2z"/>
			<path id="XMLID_65_" fill="#8855B5" d="M176.3,315.5c-0.9,0-1.7-0.1-2.4-0.3c-0.7-0.2-1.4-0.6-1.9-1c-0.6-0.4-1-1-1.3-1.7
				s-0.5-1.4-0.5-2.3c0-0.9,0.2-1.6,0.5-2.3c0.3-0.6,0.7-1.2,1.3-1.6c0.5-0.4,1.1-0.7,1.8-0.9c0.7-0.2,1.3-0.3,2-0.3
				c0.8,0,1.5,0.1,2.1,0.3c0.6,0.2,1.2,0.5,1.7,0.9c0.5,0.4,0.8,0.8,1.1,1.3c0.3,0.5,0.4,1.1,0.4,1.7c0,0.5-0.1,0.8-0.4,1
				c-0.3,0.2-0.7,0.4-1.2,0.5l-5.5,0.7c0.2,0.4,0.5,0.8,1,1c0.5,0.2,1.1,0.3,1.7,0.3c0.6,0,1.2-0.1,1.7-0.2c0.5-0.1,1-0.3,1.3-0.5
				c0.2,0.1,0.4,0.3,0.6,0.6c0.2,0.2,0.2,0.5,0.2,0.8c0,0.6-0.3,1-0.9,1.3c-0.5,0.2-1,0.4-1.6,0.5S176.9,315.5,176.3,315.5z
				 M175.7,307.6c-0.4,0-0.7,0.1-0.9,0.2c-0.3,0.1-0.5,0.2-0.6,0.4c-0.2,0.2-0.3,0.4-0.4,0.6s-0.1,0.4-0.1,0.6l3.8-0.6
				c0-0.3-0.2-0.5-0.5-0.8C176.7,307.8,176.3,307.6,175.7,307.6z"/>
			<path id="XMLID_63_" fill="#8855B5" d="M193.3,307.8c-0.4,0-0.7,0.1-1.1,0.2c-0.3,0.1-0.6,0.3-0.9,0.5c-0.2,0.2-0.4,0.5-0.6,0.8
				s-0.2,0.7-0.2,1.1c0,0.8,0.3,1.4,0.8,1.9c0.5,0.4,1.2,0.6,1.9,0.6c0.4,0,0.8,0,1.2-0.1c0.3-0.1,0.6-0.2,0.9-0.3
				c0.3,0.2,0.5,0.4,0.7,0.6c0.1,0.2,0.2,0.5,0.2,0.8c0,0.5-0.3,1-0.9,1.3c-0.6,0.3-1.4,0.5-2.4,0.5c-0.9,0-1.8-0.1-2.5-0.4
				s-1.4-0.6-1.9-1c-0.5-0.4-1-1-1.3-1.6c-0.3-0.6-0.4-1.3-0.4-2.1c0-0.9,0.2-1.7,0.5-2.3s0.7-1.2,1.3-1.6c0.5-0.4,1.2-0.7,1.9-1
				c0.7-0.2,1.5-0.3,2.3-0.3c1.1,0,1.9,0.2,2.5,0.5c0.6,0.3,0.9,0.8,0.9,1.3c0,0.3-0.1,0.5-0.2,0.7c-0.1,0.2-0.3,0.4-0.5,0.6
				c-0.3-0.1-0.6-0.2-0.9-0.3C194.1,307.9,193.7,307.8,193.3,307.8z"/>
			<path id="XMLID_60_" fill="#8855B5" d="M208.9,310.3c0,0.8-0.1,1.6-0.4,2.2c-0.3,0.6-0.7,1.2-1.2,1.6c-0.5,0.4-1.1,0.8-1.8,1
				c-0.7,0.2-1.5,0.3-2.4,0.3s-1.7-0.1-2.4-0.4c-0.7-0.2-1.3-0.6-1.8-1c-0.5-0.4-0.9-1-1.2-1.6c-0.3-0.6-0.4-1.4-0.4-2.2
				c0-0.8,0.1-1.5,0.4-2.1c0.3-0.6,0.7-1.2,1.2-1.6c0.5-0.4,1.1-0.8,1.8-1c0.7-0.2,1.5-0.4,2.4-0.4s1.7,0.1,2.4,0.4s1.3,0.6,1.8,1
				c0.5,0.4,0.9,1,1.2,1.6C208.7,308.8,208.9,309.6,208.9,310.3z M201.1,310.3c0,0.8,0.2,1.4,0.5,1.9c0.3,0.4,0.8,0.7,1.5,0.7
				c0.6,0,1.1-0.2,1.4-0.7s0.5-1.1,0.5-1.9c0-0.8-0.2-1.4-0.5-1.9c-0.3-0.4-0.8-0.7-1.4-0.7s-1.1,0.2-1.4,0.7
				C201.3,308.9,201.1,309.5,201.1,310.3z"/>
			<path id="XMLID_57_" fill="#8855B5" d="M210.2,310.3c0-0.9,0.1-1.6,0.4-2.3c0.3-0.6,0.7-1.2,1.2-1.6c0.5-0.4,1.1-0.7,1.8-1
				s1.5-0.3,2.3-0.3c0.3,0,0.6,0,0.9,0.1s0.5,0.1,0.7,0.2v-3.2c0.1,0,0.4-0.1,0.7-0.1c0.3,0,0.7-0.1,1-0.1c0.3,0,0.6,0,0.9,0.1
				c0.3,0,0.5,0.1,0.7,0.2s0.3,0.3,0.4,0.5s0.1,0.5,0.1,0.8v9.5c0,0.6-0.3,1.1-1,1.5c-0.4,0.3-1,0.5-1.7,0.7
				c-0.7,0.2-1.5,0.3-2.3,0.3c-1,0-1.8-0.1-2.6-0.4c-0.8-0.2-1.4-0.6-1.9-1c-0.5-0.5-0.9-1-1.2-1.6
				C210.4,311.8,210.2,311.1,210.2,310.3z M216.5,307.8c-0.8,0-1.4,0.2-1.8,0.6c-0.4,0.4-0.6,1-0.6,1.9c0,0.8,0.2,1.5,0.6,1.9
				c0.4,0.4,1,0.6,1.7,0.6c0.3,0,0.5,0,0.7-0.1s0.4-0.2,0.5-0.3v-4.4C217.3,307.9,216.9,307.8,216.5,307.8z"/>
			<path id="XMLID_54_" fill="#8855B5" d="M229.4,315.5c-0.9,0-1.7-0.1-2.4-0.3c-0.7-0.2-1.4-0.6-1.9-1c-0.6-0.4-1-1-1.3-1.7
				s-0.5-1.4-0.5-2.3c0-0.9,0.2-1.6,0.5-2.3c0.3-0.6,0.7-1.2,1.3-1.6c0.5-0.4,1.1-0.7,1.8-0.9c0.7-0.2,1.3-0.3,2-0.3
				c0.8,0,1.5,0.1,2.1,0.3c0.6,0.2,1.2,0.5,1.7,0.9c0.5,0.4,0.8,0.8,1.1,1.3c0.3,0.5,0.4,1.1,0.4,1.7c0,0.5-0.1,0.8-0.4,1
				c-0.3,0.2-0.7,0.4-1.2,0.5l-5.5,0.7c0.2,0.4,0.5,0.8,1,1c0.5,0.2,1.1,0.3,1.7,0.3c0.6,0,1.2-0.1,1.7-0.2c0.5-0.1,1-0.3,1.3-0.5
				c0.2,0.1,0.4,0.3,0.6,0.6c0.2,0.2,0.2,0.5,0.2,0.8c0,0.6-0.3,1-0.9,1.3c-0.5,0.2-1,0.4-1.6,0.5S229.9,315.5,229.4,315.5z
				 M228.8,307.6c-0.4,0-0.7,0.1-0.9,0.2c-0.3,0.1-0.5,0.2-0.6,0.4c-0.2,0.2-0.3,0.4-0.4,0.6s-0.1,0.4-0.1,0.6l3.8-0.6
				c0-0.3-0.2-0.5-0.5-0.8C229.7,307.8,229.3,307.6,228.8,307.6z"/>
			<path id="XMLID_52_" fill="#8855B5" d="M250.9,315.2c-0.1,0-0.4,0.1-0.7,0.1s-0.6,0.1-1,0.1c-0.3,0-0.6,0-0.9-0.1
				s-0.5-0.1-0.7-0.2c-0.2-0.1-0.3-0.3-0.4-0.5c-0.1-0.2-0.1-0.5-0.1-0.8v-4.4c0-0.5-0.2-0.9-0.5-1.2c-0.3-0.2-0.7-0.3-1.1-0.3
				c-0.3,0-0.6,0-0.8,0.1c-0.3,0.1-0.5,0.1-0.6,0.2v7c-0.1,0-0.4,0.1-0.7,0.1s-0.6,0.1-1,0.1c-0.3,0-0.6,0-0.9-0.1
				c-0.3,0-0.5-0.1-0.7-0.2c-0.2-0.1-0.3-0.3-0.4-0.5c-0.1-0.2-0.1-0.5-0.1-0.8v-11.6c0.2,0,0.4-0.1,0.7-0.1s0.6-0.1,1-0.1
				c0.3,0,0.6,0,0.9,0.1c0.3,0,0.5,0.1,0.7,0.2c0.2,0.1,0.3,0.3,0.4,0.5c0.1,0.2,0.1,0.5,0.1,0.8v2c0.2-0.1,0.5-0.1,0.9-0.2
				c0.4-0.1,0.8-0.1,1.3-0.1c1.5,0,2.6,0.3,3.4,1s1.2,1.6,1.2,3V315.2z"/>
			<path id="XMLID_49_" fill="#8855B5" d="M258.9,315.5c-0.9,0-1.7-0.1-2.4-0.3c-0.7-0.2-1.4-0.6-1.9-1c-0.6-0.4-1-1-1.3-1.7
				s-0.5-1.4-0.5-2.3c0-0.9,0.2-1.6,0.5-2.3c0.3-0.6,0.7-1.2,1.3-1.6c0.5-0.4,1.1-0.7,1.8-0.9c0.7-0.2,1.3-0.3,2-0.3
				c0.8,0,1.5,0.1,2.1,0.3c0.6,0.2,1.2,0.5,1.7,0.9c0.5,0.4,0.8,0.8,1.1,1.3c0.3,0.5,0.4,1.1,0.4,1.7c0,0.5-0.1,0.8-0.4,1
				c-0.3,0.2-0.7,0.4-1.2,0.5l-5.5,0.7c0.2,0.4,0.5,0.8,1,1c0.5,0.2,1.1,0.3,1.7,0.3c0.6,0,1.2-0.1,1.7-0.2c0.5-0.1,1-0.3,1.3-0.5
				c0.2,0.1,0.4,0.3,0.6,0.6c0.2,0.2,0.2,0.5,0.2,0.8c0,0.6-0.3,1-0.9,1.3c-0.5,0.2-1,0.4-1.6,0.5S259.4,315.5,258.9,315.5z
				 M258.3,307.6c-0.4,0-0.7,0.1-0.9,0.2c-0.3,0.1-0.5,0.2-0.6,0.4c-0.2,0.2-0.3,0.4-0.4,0.6s-0.1,0.4-0.1,0.6l3.8-0.6
				c0-0.3-0.2-0.5-0.5-0.8C259.3,307.8,258.8,307.6,258.3,307.6z"/>
			<path id="XMLID_47_" fill="#8855B5" d="M269.1,315.2c-0.1,0-0.4,0.1-0.7,0.1c-0.3,0-0.6,0.1-1,0.1c-0.3,0-0.6,0-0.9-0.1
				c-0.3,0-0.5-0.1-0.7-0.2s-0.3-0.3-0.4-0.5c-0.1-0.2-0.1-0.5-0.1-0.8v-6c0-0.3,0.1-0.6,0.2-0.8c0.1-0.2,0.3-0.4,0.5-0.6
				c0.2-0.2,0.5-0.3,0.9-0.5s0.7-0.3,1.1-0.4c0.4-0.1,0.8-0.2,1.2-0.3c0.4-0.1,0.9-0.1,1.3-0.1c0.7,0,1.3,0.1,1.7,0.4
				c0.4,0.2,0.6,0.7,0.6,1.2c0,0.2,0,0.4-0.1,0.6c-0.1,0.2-0.1,0.3-0.2,0.5c-0.3,0-0.6,0-1,0c-0.3,0-0.6,0.1-1,0.1
				c-0.3,0.1-0.6,0.1-0.9,0.2c-0.3,0.1-0.5,0.1-0.7,0.2V315.2z"/>
			<path id="XMLID_44_" fill="#8855B5" d="M279.8,315.5c-0.9,0-1.7-0.1-2.4-0.3c-0.7-0.2-1.4-0.6-1.9-1c-0.6-0.4-1-1-1.3-1.7
				s-0.5-1.4-0.5-2.3c0-0.9,0.2-1.6,0.5-2.3c0.3-0.6,0.7-1.2,1.3-1.6c0.5-0.4,1.1-0.7,1.8-0.9c0.7-0.2,1.3-0.3,2-0.3
				c0.8,0,1.5,0.1,2.1,0.3c0.6,0.2,1.2,0.5,1.7,0.9c0.5,0.4,0.8,0.8,1.1,1.3c0.3,0.5,0.4,1.1,0.4,1.7c0,0.5-0.1,0.8-0.4,1
				c-0.3,0.2-0.7,0.4-1.2,0.5l-5.5,0.7c0.2,0.4,0.5,0.8,1,1c0.5,0.2,1.1,0.3,1.7,0.3c0.6,0,1.2-0.1,1.7-0.2c0.5-0.1,1-0.3,1.3-0.5
				c0.2,0.1,0.4,0.3,0.6,0.6c0.2,0.2,0.2,0.5,0.2,0.8c0,0.6-0.3,1-0.9,1.3c-0.5,0.2-1,0.4-1.6,0.5S280.3,315.5,279.8,315.5z
				 M279.1,307.6c-0.4,0-0.7,0.1-0.9,0.2c-0.3,0.1-0.5,0.2-0.6,0.4c-0.2,0.2-0.3,0.4-0.4,0.6s-0.1,0.4-0.1,0.6l3.8-0.6
				c0-0.3-0.2-0.5-0.5-0.8C280.1,307.8,279.7,307.6,279.1,307.6z"/>
			<path id="XMLID_42_" fill="#8855B5" d="M285.6,313.6c0-0.6,0.2-1,0.6-1.4s0.9-0.6,1.6-0.6c0.7,0,1.2,0.2,1.6,0.6s0.6,0.8,0.6,1.4
				c0,0.6-0.2,1-0.6,1.4c-0.4,0.4-0.9,0.6-1.6,0.6c-0.7,0-1.2-0.2-1.6-0.6C285.7,314.6,285.6,314.1,285.6,313.6z"/>
		</g>
	</g>
	<path id="horizontal_x5F_frame_2_" fill="#CCCCCC" d="M394.7,446.3h-65.5c-1.4,0-2.5-1.1-2.5-2.5v-25.2c0-1.4,1.1-2.5,2.5-2.5h65.5
		c1.4,0,2.5,1.1,2.5,2.5v25.2C397.1,445.2,396,446.3,394.7,446.3z"/>
	<path id="horizontal_x5F_frame_1_" fill="#CCCCCC" d="M315.9,446.3h-65.5c-1.4,0-2.5-1.1-2.5-2.5v-25.2c0-1.4,1.1-2.5,2.5-2.5h65.5
		c1.4,0,2.5,1.1,2.5,2.5v25.2C318.3,445.2,317.2,446.3,315.9,446.3z"/>
	<g id="XMLID_16_">
		<g id="XMLID_18_">
			<path id="XMLID_27_" fill="#8855B5" d="M342.9,432.5c-0.6-0.2-1.2-0.4-1.8-0.6c-0.5-0.2-1-0.5-1.4-0.8c-0.4-0.3-0.7-0.6-0.9-1.1
				s-0.3-0.9-0.3-1.5c0-1.1,0.5-2,1.4-2.7c1-0.7,2.3-1,4.1-1c0.6,0,1.2,0,1.8,0.1c0.5,0.1,1,0.2,1.4,0.4c0.4,0.2,0.7,0.4,0.9,0.6
				c0.2,0.3,0.3,0.6,0.3,0.9s-0.1,0.6-0.3,0.9c-0.2,0.2-0.4,0.5-0.6,0.6c-0.3-0.2-0.8-0.4-1.3-0.5c-0.5-0.1-1.1-0.2-1.8-0.2
				c-0.7,0-1.2,0.1-1.5,0.3c-0.3,0.2-0.5,0.4-0.5,0.6c0,0.2,0.1,0.4,0.3,0.5c0.2,0.1,0.5,0.2,0.9,0.4l1.2,0.3
				c1.4,0.4,2.5,0.9,3.2,1.5c0.7,0.6,1.1,1.5,1.1,2.5c0,1.1-0.5,2.1-1.5,2.8c-1,0.7-2.4,1.1-4.4,1.1c-0.7,0-1.3,0-1.9-0.2
				c-0.6-0.1-1.1-0.2-1.5-0.4c-0.4-0.2-0.8-0.4-1-0.7c-0.2-0.3-0.4-0.6-0.4-1c0-0.4,0.1-0.7,0.4-1c0.3-0.3,0.5-0.5,0.8-0.6
				c0.4,0.3,0.9,0.5,1.5,0.8c0.6,0.2,1.3,0.3,2,0.3c0.7,0,1.2-0.1,1.5-0.3c0.3-0.2,0.4-0.4,0.4-0.7c0-0.3-0.1-0.5-0.4-0.6
				s-0.6-0.3-1-0.4L342.9,432.5z"/>
			<path id="XMLID_24_" fill="#8855B5" d="M355.7,427.3c0.8,0,1.5,0.1,2.2,0.2c0.7,0.1,1.2,0.4,1.7,0.7s0.8,0.7,1.1,1.1
				c0.3,0.5,0.4,1,0.4,1.6v4.5c0,0.3-0.1,0.6-0.3,0.9c-0.2,0.2-0.5,0.4-0.8,0.6c-1,0.5-2.3,0.8-4.1,0.8c-0.8,0-1.5-0.1-2.1-0.2
				c-0.6-0.1-1.2-0.3-1.6-0.6c-0.5-0.3-0.8-0.6-1-1c-0.2-0.4-0.4-0.9-0.4-1.4c0-0.9,0.3-1.6,0.9-2.1c0.6-0.5,1.5-0.8,2.8-0.9
				l2.9-0.3v-0.1c0-0.4-0.2-0.7-0.6-0.8c-0.4-0.2-0.9-0.3-1.6-0.3c-0.6,0-1.1,0.1-1.6,0.2c-0.5,0.1-1,0.2-1.4,0.4
				c-0.2-0.1-0.4-0.3-0.5-0.6c-0.1-0.2-0.2-0.5-0.2-0.8c0-0.3,0.1-0.6,0.3-0.8c0.2-0.2,0.5-0.4,0.9-0.5c0.4-0.1,0.9-0.3,1.5-0.3
				S355.1,427.3,355.7,427.3z M355.8,435.1c0.3,0,0.5,0,0.8-0.1c0.3,0,0.5-0.1,0.7-0.2v-1.6l-1.6,0.1c-0.4,0-0.8,0.1-1,0.2
				c-0.3,0.1-0.4,0.3-0.4,0.6s0.1,0.5,0.3,0.7S355.3,435.1,355.8,435.1z"/>
			<path id="XMLID_22_" fill="#8855B5" d="M370.2,437c-0.2,0.1-0.5,0.3-0.9,0.4c-0.4,0.1-0.8,0.1-1.4,0.1c-0.6,0-1.1-0.1-1.5-0.2
				c-0.4-0.1-0.7-0.3-0.9-0.6c-0.1-0.2-0.3-0.5-0.5-1c-0.2-0.4-0.4-0.9-0.6-1.4c-0.2-0.5-0.4-1-0.6-1.6c-0.2-0.6-0.4-1.1-0.6-1.7
				c-0.2-0.6-0.4-1.1-0.5-1.6c-0.2-0.5-0.3-1-0.4-1.4c0.2-0.2,0.5-0.4,0.8-0.5c0.3-0.1,0.7-0.2,1.1-0.2c0.5,0,0.9,0.1,1.3,0.3
				c0.3,0.2,0.6,0.6,0.7,1.1l0.9,3.1c0.2,0.6,0.3,1.1,0.5,1.6s0.3,0.9,0.3,1.1h0.1c0.3-1,0.6-2.1,0.9-3.3c0.3-1.2,0.6-2.4,0.8-3.5
				c0.2-0.1,0.5-0.2,0.9-0.3c0.3-0.1,0.6-0.1,0.9-0.1c0.5,0,1,0.1,1.3,0.3c0.4,0.2,0.5,0.5,0.5,1c0,0.2-0.1,0.5-0.2,0.9
				s-0.3,0.9-0.4,1.4c-0.2,0.5-0.4,1.1-0.6,1.6c-0.2,0.6-0.5,1.1-0.7,1.7c-0.2,0.5-0.5,1.1-0.7,1.5
				C370.6,436.3,370.4,436.7,370.2,437z"/>
			<path id="XMLID_19_" fill="#8855B5" d="M380.7,437.6c-0.9,0-1.7-0.1-2.4-0.3c-0.7-0.2-1.4-0.6-1.9-1s-1-1-1.3-1.7
				c-0.3-0.7-0.5-1.4-0.5-2.3c0-0.9,0.2-1.6,0.5-2.3c0.3-0.6,0.7-1.2,1.3-1.6s1.1-0.7,1.8-0.9c0.7-0.2,1.3-0.3,2-0.3
				c0.8,0,1.5,0.1,2.1,0.3c0.6,0.2,1.2,0.5,1.7,0.9c0.5,0.4,0.8,0.8,1.1,1.3c0.3,0.5,0.4,1.1,0.4,1.7c0,0.5-0.1,0.8-0.4,1
				s-0.7,0.4-1.2,0.5l-5.5,0.7c0.2,0.4,0.5,0.8,1,1c0.5,0.2,1.1,0.3,1.7,0.3c0.6,0,1.2-0.1,1.7-0.2s1-0.3,1.3-0.5
				c0.2,0.1,0.4,0.3,0.6,0.6c0.2,0.2,0.2,0.5,0.2,0.8c0,0.6-0.3,1-0.9,1.3c-0.5,0.2-1,0.4-1.6,0.5
				C381.7,437.6,381.2,437.6,380.7,437.6z M380,429.8c-0.4,0-0.7,0.1-0.9,0.2c-0.3,0.1-0.5,0.2-0.6,0.4c-0.2,0.2-0.3,0.4-0.4,0.6
				s-0.1,0.4-0.1,0.6l3.8-0.6c0-0.3-0.2-0.5-0.5-0.8C381,429.9,380.6,429.8,380,429.8z"/>
		</g>
	</g>
</g>
</svg>
