<svg version="1.1"
	 xmlns="http://www.w3.org/2000/svg" xmlns:xlink="http://www.w3.org/1999/xlink" xmlns:a="http://ns.adobe.com/AdobeSVGViewerExtensions/3.0/"
	 x="0px" y="0px" viewBox="0 0 29.8 29.8" enable-background="new 0 0 29.8 29.8"
	 xml:space="preserve">
<defs>
</defs>
<g id="XMLID_15_">
	<circle id="XMLID_19_" fill="#662D91" cx="14.9" cy="14.9" r="14.9"/>
	<g id="XMLID_16_">
		<path id="XMLID_17_" fill="#F2F2F2" d="M13.9,12.1l-2,0.6c-0.2-0.1-0.4-0.3-0.6-0.6c-0.2-0.2-0.3-0.6-0.3-1c0-0.8,0.5-1.4,1.5-1.7
			l2.3-0.8h0.8c0.6,0,1,0.2,1.4,0.5c0.3,0.3,0.5,0.8,0.5,1.4v10.6c-0.1,0-0.4,0.1-0.7,0.1c-0.3,0-0.6,0.1-0.9,0.1s-0.6,0-0.8-0.1
			c-0.2,0-0.4-0.1-0.6-0.2s-0.3-0.3-0.4-0.5c-0.1-0.2-0.1-0.5-0.1-0.8V12.1z"/>
	</g>
</g>
</svg>
