<svg version="1.1"
	 xmlns="http://www.w3.org/2000/svg" xmlns:xlink="http://www.w3.org/1999/xlink" xmlns:a="http://ns.adobe.com/AdobeSVGViewerExtensions/3.0/"
	 x="0px" y="0px" viewBox="0 0 29.8 29.8" enable-background="new 0 0 29.8 29.8"
	 xml:space="preserve">
<defs>
</defs>
<g id="XMLID_15_">
	<circle id="XMLID_19_" fill="#662D91" cx="14.9" cy="14.9" r="14.9"/>
	<g id="XMLID_16_">
		<path id="XMLID_17_" fill="#F2F2F2" d="M14.7,8.4c1.6,0,2.7,0.3,3.6,1c0.8,0.6,1.2,1.5,1.2,2.6c0,0.7-0.2,1.2-0.5,1.7
			c-0.3,0.5-0.8,0.8-1.2,1c0.3,0.1,0.5,0.2,0.8,0.4c0.2,0.2,0.5,0.4,0.6,0.6c0.2,0.2,0.3,0.5,0.4,0.9s0.2,0.7,0.2,1.1
			c0,0.6-0.1,1.1-0.4,1.6c-0.3,0.5-0.6,0.9-1,1.2c-0.4,0.3-1,0.6-1.6,0.7c-0.6,0.2-1.3,0.3-2,0.3c-1.4,0-2.5-0.2-3.2-0.6
			s-1.1-0.9-1.1-1.5c0-0.4,0.1-0.7,0.3-0.9c0.2-0.3,0.4-0.5,0.7-0.6c0.3,0.2,0.6,0.4,1.1,0.6c0.5,0.2,1,0.3,1.8,0.3
			c0.7,0,1.2-0.1,1.5-0.4c0.3-0.2,0.5-0.6,0.5-1c0-0.4-0.1-0.7-0.4-0.9c-0.3-0.2-0.7-0.3-1.4-0.3h-1.9c-0.1-0.1-0.2-0.3-0.2-0.5
			c-0.1-0.2-0.1-0.5-0.1-0.8c0-0.3,0-0.6,0.1-0.8c0.1-0.2,0.1-0.4,0.3-0.6h1.9c1,0,1.5-0.4,1.5-1.1c0-0.4-0.2-0.6-0.5-0.9
			c-0.3-0.2-0.8-0.3-1.4-0.3c-0.6,0-1,0.1-1.5,0.2c-0.4,0.1-0.8,0.3-1,0.5c-0.2-0.2-0.4-0.4-0.6-0.6c-0.1-0.2-0.2-0.5-0.2-0.8
			c0-0.7,0.4-1.2,1.1-1.5C12.6,8.6,13.5,8.4,14.7,8.4z"/>
	</g>
</g>
</svg>
